#!OML:ASF I:\Random Stuff\random\construction\7_22_03\Session 2\subj1.ASF
:FULLY-SPECIFIED
:DEGREES
699
root -3.90968 17.8241 0.762441 -162.502 77.3413 -168.821
lowerback 1.48202 0.994708 1.34171
upperback -2.63398 1.43814 1.09046
thorax -3.53398 0.709992 0.304096
lowerneck -23.3776 -1.35292 -0.555568
upperneck 27.1481 -2.12956 2.2392
head 13.0256 -0.54818 0.614076
rclavicle -2.03444e-014 -1.59028e-015
rhumerus -41.7392 6.40594 -86.5969
rradius 62.593
rwrist -8.75692
rhand -21.8513 21.4411
rfingers 7.12502
rthumb 4.5524 -8.48997
lclavicle -2.03444e-014 -1.59028e-015
lhumerus -32.7563 -4.24447 90.1572
lradius 31.9718
lwrist 32.2058
lhand -20.1236 57.6408
lfingers 7.12502
lthumb 6.22047 87.5295
rfemur 3.18378 -9.88352 19.7516
rtibia 0
rfoot -7.70633 -16.605
rtoes 12.8238
lfemur -13.3991 -21.2727 -11.34
ltibia 17.1471
lfoot -10.925 11.1808
ltoes -34.155
700
root -3.90836 17.8209 0.754931 -162.834 77.1582 -169.128
lowerback 1.3716 1.06016 1.33305
upperback -2.64997 1.52298 1.06599
thorax -3.48733 0.75268 0.282086
lowerneck -23.3735 -1.47976 -0.571262
upperneck 27.2245 -2.28617 2.18419
head 13.0582 -0.62367 0.56817
rclavicle -4.05956e-015 -5.76476e-015
rhumerus -41.668 6.66566 -86.8101
rradius 62.5746
rwrist -8.73334
rhand -21.9255 21.4077
rfingers 7.12502
rthumb 4.48066 -8.5249
lclavicle -4.05956e-015 -5.76476e-015
lhumerus -32.515 -4.09853 90.1963
lradius 31.4419
lwrist 31.8288
lhand -20.2895 57.3778
lfingers 7.12502
lthumb 6.06035 87.2712
rfemur 3.29884 -10.0773 19.6746
rtibia 0
rfoot -7.93311 -16.5099
rtoes 13.7916
lfemur -13.5107 -21.3215 -11.3986
ltibia 17.3402
lfoot -11.0451 11.0882
ltoes -34.0192
701
root -3.90675 17.8174 0.748493 -163.009 76.9833 -169.266
lowerback 1.2645 1.1436 1.37397
upperback -2.66017 1.63199 1.00895
thorax -3.43412 0.805502 0.198143
lowerneck -23.1746 -1.56069 -0.425645
upperneck 27.0561 -2.41724 2.06209
head 12.9469 -0.686795 0.472599
rclavicle 8.33684e-014 -3.97569e-016
rhumerus -41.6061 6.82608 -87.0316
rradius 62.3273
rwrist -8.82769
rhand -21.6723 21.2398
rfingers 7.12502
rthumb 4.72519 -8.6875
lclavicle 8.33684e-014 -3.97569e-016
lhumerus -32.3413 -4.0952 90.2104
lradius 30.9957
lwrist 31.4845
lhand -20.4483 57.4146
lfingers 7.12502
lthumb 5.90698 87.3123
rfemur 3.42061 -10.2519 19.6323
rtibia -7.95139e-015
rfoot -8.15174 -16.4078
rtoes 14.7793
lfemur -13.6192 -21.472 -11.4112
ltibia 17.5532
lfoot -11.1228 11.1034
ltoes -34.1064
702
root -3.9048 17.8123 0.742193 -162.919 76.8119 -169.106
lowerback 1.17353 1.19077 1.47607
upperback -2.65362 1.69454 0.965286
thorax -3.37142 0.833807 0.0958227
lowerneck -22.5954 -1.3605 0.681344
upperneck 26.4061 -2.21594 1.00678
head 12.5331 -0.649368 -0.0840213
rclavicle 1.09999e-014 1.68967e-015
rhumerus -41.565 6.98314 -87.2472
rradius 61.8673
rwrist -8.80122
rhand -21.038 21.218
rfingers 7.12502
rthumb 5.33764 -8.69475
lclavicle 1.09999e-014 1.68967e-015
lhumerus -32.1902 -3.75556 90.0872
lradius 30.5533
lwrist 30.7732
lhand -20.5519 57.5742
lfingers 7.12502
lthumb 5.80694 87.4746
rfemur 3.55148 -10.4037 19.6602
rtibia -1.43125e-014
rfoot -8.32361 -16.353
rtoes 15.5098
lfemur -13.6694 -21.8433 -11.3478
ltibia 17.7456
lfoot -11.1837 11.2973
ltoes -33.9582
703
root -3.90425 17.8078 0.736496 -162.842 76.6567 -168.96
lowerback 1.12018 1.19367 1.57074
upperback -2.65302 1.69967 0.950051
thorax -3.33755 0.834024 0.0283223
lowerneck -21.7724 -0.984949 2.58242
upperneck 25.4891 -1.77096 -0.956007
head 11.9613 -0.554779 -1.06081
rclavicle -1.33838e-014 5.51627e-015
rhumerus -41.5192 7.17291 -87.3881
rradius 61.131
rwrist -8.40278
rhand -20.3641 21.3694
rfingers 7.12502
rthumb 5.98831 -8.52593
lclavicle -1.33838e-014 5.51627e-015
lhumerus -32.1115 -3.21599 89.9427
lradius 30.1888
lwrist 30.1705
lhand -20.5807 57.6328
lfingers 7.12502
lthumb 5.77921 87.534
rfemur 3.66281 -10.541 19.6939
rtibia 1.59028e-015
rfoot -8.42833 -16.344
rtoes 15.743
lfemur -13.7028 -22.1753 -11.2915
ltibia 17.9046
lfoot -11.2843 11.4634
ltoes -33.4582
704
root -3.90452 17.8059 0.731503 -162.936 76.52 -169.002
lowerback 1.0823 1.19243 1.6245
upperback -2.66233 1.69828 0.925921
thorax -3.32357 0.831758 -0.0256798
lowerneck -21.3293 -0.845606 3.45818
upperneck 25.0479 -1.60582 -1.86366
head 11.6876 -0.527419 -1.51053
rclavicle 3.44845e-014 7.30534e-015
rhumerus -41.4398 7.30637 -87.4588
rradius 60.126
rwrist -7.58672
rhand -19.8337 21.1015
rfingers 7.12502
rthumb 6.50039 -8.77872
lclavicle 3.44845e-014 7.30534e-015
lhumerus -32.1204 -2.91481 89.8887
lradius 29.9639
lwrist 30.1578
lhand -20.8428 57.9962
lfingers 7.12502
lthumb 5.5261 87.9042
rfemur 3.76837 -10.6731 19.6836
rtibia 0
rfoot -8.58002 -16.3187
rtoes 16.2369
lfemur -13.7325 -22.4985 -11.2798
ltibia 18.0232
lfoot -11.388 11.7365
ltoes -33.2885
